<?xml version="1.0" encoding="UTF-8"?>
<svg width="164px" height="73px" viewBox="0 0 164 73" version="1.1" xmlns="http://www.w3.org/2000/svg" xmlns:xlink="http://www.w3.org/1999/xlink">
    <title>Tree</title>
    <g id="Page-1" stroke="none" stroke-width="1" fill="none" fill-rule="evenodd">
        <path d="M29.365,72.425 C31.1216667,72.425 32.6233333,71.9858333 33.87,71.1075 C35.1166667,70.2291667 35.7966667,68.9683333 35.91,67.325 C36.1366667,64.2083333 36.59,60.1141667 37.27,55.0425 C37.95,49.9708333 38.6016667,45.5083333 39.225,41.655 C40.9816667,31.115 42.9083333,20.6316667 45.005,10.205 C49.6516667,10.2616667 53.4058333,10.3608333 56.2675,10.5025 C59.1291667,10.6441667 63.11,10.9133333 68.21,11.31 C70.4766667,11.48 72.1341667,11.14 73.1825,10.29 C74.2308333,9.44 74.755,8.08 74.755,6.21 C74.755,5.07666667 74.3158333,4.085 73.4375,3.235 C72.5591667,2.385 71.2416667,1.79 69.485,1.45 C66.7083333,0.94 63.4641667,0.571666667 59.7525,0.345 C56.0408333,0.118333333 51.0683333,0.005 44.835,0.005 C34.7483333,0.005 26.4891667,0.685 20.0575,2.045 C13.6258333,3.405 8.8375,5.54416667 5.6925,8.4625 C2.5475,11.3808333 0.975,15.2483333 0.975,20.065 C0.975,22.3316667 1.34333333,24.3575 2.08,26.1425 C2.81666667,27.9275 3.75166667,29.3016667 4.885,30.265 C5.50833333,30.8316667 6.30166667,31.115 7.265,31.115 C8.625,31.115 9.9425,30.6475 11.2175,29.7125 C12.4925,28.7775 13.13,27.7716667 13.13,26.695 C13.13,26.2416667 13.0166667,25.8166667 12.79,25.42 C11.6566667,23.6633333 11.09,21.8216667 11.09,19.895 C11.09,17.7983333 11.7558333,16.0841667 13.0875,14.7525 C14.4191667,13.4208333 16.6716667,12.3866667 19.845,11.65 C23.0183333,10.9133333 27.3816667,10.46 32.935,10.29 C32.6516667,11.65 32.3966667,12.8825 32.17,13.9875 C31.9433333,15.0925 31.745,16.07 31.575,16.92 C30.7816667,20.7166667 29.9883333,24.74 29.195,28.99 C28.4016667,33.24 27.6933333,37.5183333 27.07,41.825 C26.73,44.375 26.2483333,47.3783333 25.625,50.835 C25.0583333,54.2916667 24.5625,57.5925 24.1375,60.7375 C23.7125,63.8825 23.5,66.135 23.5,67.495 C23.5,68.9683333 24.01,70.1583333 25.03,71.065 C26.05,71.9716667 27.495,72.425 29.365,72.425 Z M64.81,72.425 C66.5666667,72.425 67.8558333,71.9575 68.6775,71.0225 C69.4991667,70.0875 70.2216667,68.2883333 70.845,65.625 C71.695,62.1683333 72.8,58.8816667 74.16,55.765 C75.52,52.6483333 76.8941667,50.1408333 78.2825,48.2425 C79.6708333,46.3441667 80.79,45.395 81.64,45.395 C82.2633333,45.395 82.575,45.8483333 82.575,46.755 C82.575,47.1516667 82.5183333,47.9166667 82.405,49.05 C82.235,49.9 82.15,50.75 82.15,51.6 C82.15,54.2066667 82.9291667,56.275 84.4875,57.805 C86.0458333,59.335 88.3266667,60.1 91.33,60.1 C93.71,60.1 95.9625,59.5191667 98.0875,58.3575 C100.2125,57.1958333 102.068333,55.7933333 103.655,54.15 C104.788333,52.96 105.355,51.3166667 105.355,49.22 C105.355,48.1433333 105.1425,47.2791667 104.7175,46.6275 C104.2925,45.9758333 103.711667,45.65 102.975,45.65 C102.181667,45.65 101.416667,46.0183333 100.68,46.755 C98.1866667,49.2483333 96.1466667,50.495 94.56,50.495 C93.1433333,50.495 92.435,49.5033333 92.435,47.52 C92.435,46.9533333 92.6616667,45.5366667 93.115,43.27 C93.625,40.4366667 93.88,38.6516667 93.88,37.915 C93.88,34.2316667 92.0383333,32.39 88.355,32.39 C86.485,32.39 84.4308333,33.0416667 82.1925,34.345 C79.9541667,35.6483333 77.6733333,37.83 75.35,40.89 C73.0266667,43.95 70.93,47.9166667 69.06,52.79 C69.2866667,50.2966667 69.57,48.2 69.91,46.5 C70.25,44.8 70.7033333,42.8166667 71.27,40.55 C72.12,37.3766667 72.545,35.3366667 72.545,34.43 C72.545,33.6366667 72.3183333,33.0983333 71.865,32.815 C71.4116667,32.5316667 70.6183333,32.39 69.485,32.39 C67.3883333,32.39 65.7591667,32.7725 64.5975,33.5375 C63.4358333,34.3025 62.6,35.5066667 62.09,37.15 C59.9933333,43.78 58.945,50.7783333 58.945,58.145 C58.945,63.1316667 59.3841667,66.7583333 60.2625,69.025 C61.1408333,71.2916667 62.6566667,72.425 64.81,72.425 Z M114.96,72.425 C119.323333,72.425 123.4175,71.3483333 127.2425,69.195 C131.0675,67.0416667 134.028333,64.69 136.125,62.14 C137.201667,60.8933333 137.74,59.1366667 137.74,56.87 C137.74,55.68 137.5275,54.745 137.1025,54.065 C136.6775,53.385 136.096667,53.045 135.36,53.045 C134.51,53.045 133.745,53.4416667 133.065,54.235 C130.685,57.125 127.865833,59.4625 124.6075,61.2475 C121.349167,63.0325 118.445,63.925 115.895,63.925 C111.928333,63.925 109.236667,62.6216667 107.82,60.015 C114.506667,58.3716667 119.2525,56.1475 122.0575,53.3425 C124.8625,50.5375 126.265,47.18 126.265,43.27 C126.265,39.9266667 125.273333,37.2775 123.29,35.3225 C121.306667,33.3675 118.671667,32.39 115.385,32.39 C111.701667,32.39 108.400833,33.3816667 105.4825,35.365 C102.564167,37.3483333 100.283333,40.0258333 98.64,43.3975 C96.9966667,46.7691667 96.175,50.41 96.175,54.32 C96.175,59.93 97.8183333,64.35 101.105,67.58 C104.391667,70.81 109.01,72.425 114.96,72.425 Z M106.46,53.385 L106.46,53.215 C106.46,49.7583333 107.1825,46.8116667 108.6275,44.375 C110.0725,41.9383333 111.843333,40.72 113.94,40.72 C114.96,40.72 115.7675,41.0458333 116.3625,41.6975 C116.9575,42.3491667 117.255,43.2133333 117.255,44.29 C117.255,46.3866667 116.291667,48.2283333 114.365,49.815 C112.438333,51.4016667 109.803333,52.5916667 106.46,53.385 L106.46,53.385 Z M146.75,72.425 C150.32,72.425 153.394167,71.745 155.9725,70.385 C158.550833,69.025 160.633333,67.1266667 162.22,64.69 C163.183333,63.2166667 163.665,61.46 163.665,59.42 C163.665,58.23 163.4525,57.295 163.0275,56.615 C162.6025,55.935 162.021667,55.595 161.285,55.595 C160.435,55.595 159.67,56.02 158.99,56.87 C157.006667,59.42 155.264167,61.2333333 153.7625,62.31 C152.260833,63.3866667 150.348333,63.925 148.025,63.925 C144.795,63.925 142.5,62.6216667 141.14,60.015 C147.883333,58.3716667 152.6575,56.1475 155.4625,53.3425 C158.2675,50.5375 159.67,47.18 159.67,43.27 C159.67,39.9266667 158.678333,37.2775 156.695,35.3225 C154.711667,33.3675 152.076667,32.39 148.79,32.39 C145.106667,32.39 141.805833,33.3816667 138.8875,35.365 C135.969167,37.3483333 133.688333,40.0258333 132.045,43.3975 C130.401667,46.7691667 129.58,50.41 129.58,54.32 C129.58,59.8733333 131.081667,64.2791667 134.085,67.5375 C137.088333,70.7958333 141.31,72.425 146.75,72.425 Z M139.865,53.385 L139.865,53.215 C139.865,49.7583333 140.5875,46.8116667 142.0325,44.375 C143.4775,41.9383333 145.248333,40.72 147.345,40.72 C148.365,40.72 149.1725,41.0458333 149.7675,41.6975 C150.3625,42.3491667 150.66,43.2133333 150.66,44.29 C150.66,46.3866667 149.696667,48.2283333 147.77,49.815 C145.843333,51.4016667 143.208333,52.5916667 139.865,53.385 L139.865,53.385 Z" id="Tree" fill="#38383D" fill-rule="nonzero"></path>
    </g>
</svg>